<svg width="14" height="14" viewBox="0 0 14 14" fill="none" xmlns="http://www.w3.org/2000/svg">
<path d="M9.29801 0.5389C9.29801 0.241536 9.59196 0 9.9554 0C10.3188 0 10.6128 0.241536 10.6128 0.5389V2.89958C10.6128 3.19694 10.3188 3.43848 9.9554 3.43848C9.59196 3.43848 9.29801 3.19694 9.29801 2.89958V0.5389ZM7.53206 11.8273C7.49333 11.8273 7.46257 11.6644 7.46257 11.4627C7.46257 11.2611 7.49333 11.0981 7.53206 11.0981H9.33106C9.36979 11.0981 9.40055 11.2611 9.40055 11.4627C9.40055 11.6644 9.36979 11.8273 9.33106 11.8273H7.53206ZM1.80583 7.64372C1.76709 7.64372 1.73633 7.48079 1.73633 7.27913C1.73633 7.07747 1.76709 6.91455 1.80583 6.91455H3.60482C3.64355 6.91455 3.67432 7.07747 3.67432 7.27913C3.67432 7.48079 3.64355 7.64372 3.60482 7.64372H1.80583ZM4.66895 7.64372C4.63021 7.64372 4.59945 7.48079 4.59945 7.27913C4.59945 7.07747 4.63021 6.91455 4.66895 6.91455H6.46794C6.50667 6.91455 6.53744 7.07747 6.53744 7.27913C6.53744 7.48079 6.50667 7.64372 6.46794 7.64372H4.66895ZM7.53206 7.64372C7.49333 7.64372 7.46257 7.48079 7.46257 7.27913C7.46257 7.07747 7.49333 6.91455 7.53206 6.91455H9.33106C9.36979 6.91455 9.40055 7.07747 9.40055 7.27913C9.40055 7.48079 9.36979 7.64372 9.33106 7.64372H7.53206ZM10.3963 7.64372C10.3576 7.64372 10.3268 7.48079 10.3268 7.27913C10.3268 7.07747 10.3576 6.91455 10.3963 6.91455H12.1953C12.234 6.91455 12.2648 7.07747 12.2648 7.27913C12.2648 7.48079 12.234 7.64372 12.1953 7.64372H10.3963ZM1.80583 9.73551C1.76709 9.73551 1.73633 9.57259 1.73633 9.37093C1.73633 9.16927 1.76709 9.00635 1.80583 9.00635H3.60482C3.64355 9.00635 3.67432 9.16927 3.67432 9.37093C3.67432 9.57259 3.64355 9.73551 3.60482 9.73551H1.80583ZM4.66895 9.73551C4.63021 9.73551 4.59945 9.57259 4.59945 9.37093C4.59945 9.16927 4.63021 9.00635 4.66895 9.00635H6.46794C6.50667 9.00635 6.53744 9.16927 6.53744 9.37093C6.53744 9.57259 6.50667 9.73551 6.46794 9.73551H4.66895ZM7.53206 9.73551C7.49333 9.73551 7.46257 9.57259 7.46257 9.37093C7.46257 9.16927 7.49333 9.00635 7.53206 9.00635H9.33106C9.36979 9.00635 9.40055 9.16927 9.40055 9.37093C9.40055 9.57259 9.36979 9.73551 9.33106 9.73551H7.53206ZM10.3963 9.73551C10.3576 9.73551 10.3268 9.57259 10.3268 9.37093C10.3268 9.16927 10.3576 9.00635 10.3963 9.00635H12.1953C12.234 9.00635 12.2648 9.16927 12.2648 9.37093C12.2648 9.57259 12.234 9.73551 12.1953 9.73551H10.3963ZM1.80583 11.8273C1.76709 11.8273 1.73633 11.6644 1.73633 11.4627C1.73633 11.2611 1.76709 11.0981 1.80583 11.0981H3.60482C3.64355 11.0981 3.67432 11.2611 3.67432 11.4627C3.67432 11.6644 3.64355 11.8273 3.60482 11.8273H1.80583ZM4.66895 11.8273C4.63021 11.8273 4.59945 11.6644 4.59945 11.4627C4.59945 11.2611 4.63021 11.0981 4.66895 11.0981H6.46794C6.50667 11.0981 6.53744 11.2611 6.53744 11.4627C6.53744 11.6644 6.50667 11.8273 6.46794 11.8273H4.66895ZM3.37354 0.5389C3.37354 0.241536 3.66748 0 4.03092 0C4.39437 0 4.68831 0.241536 4.68831 0.5389V2.89958C4.68831 3.19694 4.39437 3.43848 4.03092 3.43848C3.66748 3.43848 3.37354 3.19694 3.37354 2.89958V0.5389ZM0.729167 5.16341H13.2697V2.44613C13.2697 2.35498 13.2321 2.27181 13.1717 2.21029C13.1113 2.1499 13.0282 2.1123 12.9359 2.1123H11.735C11.5334 2.1123 11.3704 1.94938 11.3704 1.74772C11.3704 1.54606 11.5334 1.38314 11.735 1.38314H12.937C13.2298 1.38314 13.4953 1.50277 13.6878 1.69531C13.8804 1.88786 14 2.15332 14 2.44613V5.52913V12.9382C14 13.231 13.8804 13.4964 13.6878 13.689C13.4953 13.8815 13.2298 14.0011 12.937 14.0011H1.06299C0.770182 14.0011 0.50472 13.8815 0.312174 13.689C0.119629 13.4953 0 13.2298 0 12.937V5.528V2.44613C0 2.15332 0.119629 1.88786 0.312174 1.69531C0.50472 1.50277 0.770182 1.38314 1.06299 1.38314H2.34701C2.54867 1.38314 2.71159 1.54606 2.71159 1.74772C2.71159 1.94938 2.54867 2.1123 2.34701 2.1123H1.06299C0.971842 2.1123 0.888672 2.1499 0.827148 2.21029C0.766764 2.27067 0.729167 2.35384 0.729167 2.44613V5.16341ZM13.2708 5.89372H0.729167V12.937C0.729167 13.0282 0.766764 13.1113 0.827148 13.1729C0.887533 13.2332 0.970703 13.2708 1.06299 13.2708H12.937C13.0282 13.2708 13.1113 13.2332 13.1729 13.1729C13.2332 13.1125 13.2708 13.0293 13.2708 12.937V5.89372ZM5.74561 2.1123C5.54395 2.1123 5.38102 1.94938 5.38102 1.74772C5.38102 1.54606 5.54395 1.38314 5.74561 1.38314H8.19401C8.39567 1.38314 8.55859 1.54606 8.55859 1.74772C8.55859 1.94938 8.39567 2.1123 8.19401 2.1123H5.74561Z" fill="#A9A5A5"/>
</svg>
