<svg width="50" height="41" viewBox="0 0 50 41" fill="none" xmlns="http://www.w3.org/2000/svg">
<path d="M14.6484 24.4133C14.6484 24.6973 14.384 24.9244 14.0625 24.9244C13.737 24.9244 13.4766 24.6937 13.4766 24.4133V11.8943H1.17188V37.124H3.20231C3.52783 37.124 3.78825 37.3547 3.78825 37.6351C3.78825 37.9191 3.52376 38.1462 3.20231 38.1462H0.585938C0.260417 38.1462 0 37.9155 0 37.6351V11.621C0 11.4151 0.0976562 11.227 0.252279 11.0886C0.406901 10.9537 0.622559 10.8685 0.86263 10.8685H13.4766V0.898017C13.4766 0.653104 13.5905 0.425937 13.7777 0.266211V0.262661C13.9648 0.0993853 14.2212 0 14.506 0H35.4004C35.6852 0 35.9416 0.0993853 36.1287 0.262661L36.1735 0.305255C36.3322 0.464981 36.4339 0.670851 36.4339 0.898017V10.8685H49.1374C49.3734 10.8685 49.589 10.9537 49.7437 11.0886L49.7477 11.0921C49.9023 11.227 50 11.4151 50 11.621V37.6351C50 37.9191 49.7355 38.1462 49.4141 38.1462H45.695C45.3695 38.1462 45.1091 37.9155 45.1091 37.6351C45.1091 37.3511 45.3735 37.124 45.695 37.124H48.8281V11.8943H36.4299V24.2642C36.4299 24.5482 36.1654 24.7753 35.8439 24.7753C35.5184 24.7753 35.258 24.5446 35.258 24.2642V1.02225H14.6484V24.4133ZM39.5304 24.3281H46.0002C46.0531 24.3281 46.0978 24.3565 46.0978 24.3884V26.0567C46.0978 26.0922 46.0531 26.1206 46.0002 26.1206H39.5304C39.4775 26.1206 39.4328 26.0922 39.4328 26.0567V24.3884C39.4328 24.3565 39.4775 24.3281 39.5304 24.3281ZM3.95101 24.3281H10.4207C10.4736 24.3281 10.5184 24.3565 10.5184 24.3884V26.0567C10.5184 26.0922 10.4736 26.1206 10.4207 26.1206H3.95101C3.89811 26.1206 3.85335 26.0922 3.85335 26.0567V24.3884C3.85335 24.3565 3.89811 24.3281 3.95101 24.3281ZM17.277 3.00641H32.6335C32.8898 3.00641 33.1014 3.19098 33.1014 3.4146V7.784C33.1014 8.00762 32.8898 8.19219 32.6335 8.19219H17.277C17.0207 8.19219 16.8091 8.00762 16.8091 7.784V3.4146C16.805 3.19098 17.0166 3.00641 17.277 3.00641ZM39.6322 37.2766C39.2049 36.5277 38.6637 35.8923 38.029 35.296C39.2171 35.6971 40.4338 36.0946 41.333 36.588C42.9688 37.4825 43.0908 38.5651 43.2251 40.1197H35.1156C35.1156 40.1091 35.1156 40.0949 35.1156 40.0842L34.965 38.9732L35.5469 39.4134L38.3952 37.2517L39.6322 37.2766ZM10.612 35.5232L11.6414 38.164L12.1582 36.5951L11.9059 36.3537C11.792 36.2082 11.7676 36.0804 11.8286 35.9704C11.967 35.7326 12.2518 35.7787 12.5163 35.7787C12.793 35.7787 13.1388 35.7326 13.2243 36.0378C13.2528 36.1408 13.2161 36.2472 13.1348 36.3573L12.8825 36.5986L13.3993 38.1675L14.3311 35.5267C14.4653 35.6332 14.6566 35.7219 14.8763 35.8C14.799 35.942 14.7298 36.0875 14.6688 36.2437C14.5101 36.6448 14.4084 37.0885 14.3636 37.5819H14.3677C14.3677 37.5925 14.3677 37.6067 14.3636 37.6173L14.1398 40.1233H6.68945C6.24186 40.0949 6.014 39.8926 5.97738 39.5447L6.132 38.1604C6.17676 37.667 6.33545 37.2801 6.5918 36.982C6.7627 36.7868 6.97428 36.6412 7.20622 36.5277C7.94678 36.155 9.94059 36.052 10.612 35.5232ZM10.1074 31.7785C10.0057 31.7856 9.93246 31.8069 9.87549 31.8353C9.84294 31.853 9.82259 31.8778 9.80632 31.9062C9.79004 31.9382 9.7819 31.9808 9.7819 32.0269C9.78597 32.1725 9.87549 32.3677 10.0505 32.5913L10.0545 32.5948L10.6283 33.3935C10.8561 33.7129 11.1003 34.0359 11.3932 34.2737C11.674 34.4974 12.0199 34.65 12.4715 34.6535C12.9639 34.6535 13.3219 34.4974 13.6149 34.2595C13.9201 34.0111 14.1642 33.6632 14.4043 33.3189L15.0513 32.389C15.1815 32.1299 15.2222 31.9737 15.1815 31.8991C15.1571 31.853 15.0472 31.8423 14.8722 31.853C14.7583 31.8743 14.6444 31.8565 14.5182 31.7998L14.8397 30.955C13.6556 30.9408 12.8418 30.7633 11.8856 30.2273C11.5723 30.0534 11.4746 29.8511 11.1613 29.8688C10.9212 29.9079 10.7218 30.0037 10.5632 30.1528C10.4085 30.2948 10.2946 30.49 10.2214 30.742L10.4126 31.7572C10.3109 31.8104 10.2091 31.814 10.1074 31.7785ZM15.2384 31.5264C15.3768 31.5619 15.4785 31.6329 15.5436 31.7394C15.6413 31.9133 15.6047 32.1689 15.4216 32.5309C15.4175 32.538 15.4134 32.5451 15.4093 32.5522L14.7542 33.4929C14.502 33.8585 14.2415 34.224 13.8957 34.508C13.5335 34.8026 13.09 34.9978 12.4797 34.9978C11.91 34.9978 11.4827 34.8062 11.1328 34.5258C10.7951 34.256 10.5387 33.9117 10.2987 33.5745L9.72494 32.7759C9.50928 32.4955 9.39942 32.2399 9.39128 32.0305C9.38721 31.9275 9.40755 31.8352 9.45231 31.7536C9.49707 31.6684 9.57031 31.5939 9.6639 31.5406C9.70866 31.5122 9.76156 31.4909 9.82259 31.4732C9.78597 31.0473 9.77376 30.5184 9.79818 30.0712C9.81038 29.9611 9.8348 29.8546 9.86735 29.7446C10.0138 29.2867 10.3841 28.9176 10.8398 28.6656C11.0026 28.5768 11.1776 28.5023 11.3647 28.4419C12.4715 28.0941 13.9364 28.2822 14.7217 29.0241C15.0431 29.3258 15.2425 29.7269 15.2832 30.2557L15.2384 31.5264ZM21.0286 27.9912C20.8984 28.0054 20.8008 28.0338 20.7275 28.0728C20.6787 28.1012 20.6462 28.1367 20.6258 28.1757C20.6014 28.2254 20.5892 28.2858 20.5892 28.3532C20.5973 28.5697 20.7316 28.8608 20.988 29.1944L20.992 29.2015L21.8506 30.3942C22.1924 30.8698 22.5505 31.3525 22.994 31.7075C23.4172 32.0447 23.9258 32.2718 24.6012 32.2718C25.3337 32.2718 25.8708 32.0376 26.3021 31.6826C26.7578 31.3099 27.124 30.7953 27.478 30.2806L28.4424 28.8963C28.6377 28.5094 28.6947 28.2751 28.6336 28.1686C28.5929 28.0977 28.4261 28.0799 28.1413 28.1048C28.1209 28.1048 28.0965 28.1048 28.0762 28.1048C27.9582 28.1048 27.832 28.0799 27.6896 28.0231L28.125 26.7595C26.355 26.7418 25.1465 26.472 23.7142 25.6734C23.2422 25.4107 23.1038 25.1125 22.6318 25.1409C22.2778 25.2013 21.9767 25.3397 21.7407 25.5633C21.5129 25.7763 21.342 26.0674 21.228 26.4436L21.5332 27.9734C21.3582 28.0444 21.1873 28.0515 21.0286 27.9912ZM21.8262 33.5745L23.3643 37.518L24.1374 35.1789L23.759 34.8168C23.5881 34.6003 23.5514 34.4086 23.645 34.2453C23.8485 33.8904 24.2757 33.9578 24.6704 33.9578C25.0855 33.9578 25.5981 33.8904 25.7284 34.3412C25.7731 34.4938 25.7162 34.65 25.5941 34.8168L25.2157 35.1789L25.9888 37.518L27.3804 33.5745C28.3854 34.3625 30.9692 34.5222 32.076 35.0582C32.3771 35.2037 32.6497 35.3847 32.8817 35.6154C32.8857 35.5906 32.8939 35.5622 32.9102 35.5409C33.0322 35.3315 33.2845 35.3705 33.5205 35.3705C33.7687 35.3705 34.0739 35.3315 34.1512 35.6012C34.1756 35.69 34.1431 35.7858 34.0739 35.8852L33.8501 36.1017L34.3099 37.4931L33.7199 37.9013L33.9152 40.1339C33.8582 40.6557 33.5205 40.9539 32.8532 41H16.3574C15.6901 40.9539 15.3524 40.6557 15.2954 40.1339L15.5273 37.5038C15.5924 36.769 15.8285 36.1869 16.215 35.7432C16.4673 35.4522 16.7847 35.2356 17.1346 35.0653C18.2373 34.5222 20.8211 34.3625 21.8262 33.5745ZM28.7272 27.6114C28.9347 27.6646 29.0894 27.7676 29.1829 27.9308C29.3294 28.1899 29.2725 28.5697 28.9998 29.1128C28.9958 29.1234 28.9876 29.1341 28.9836 29.1447L28.0029 30.5503C27.6245 31.097 27.238 31.64 26.7212 32.0624C26.18 32.5026 25.5168 32.7972 24.6094 32.7936C23.759 32.7936 23.1201 32.5097 22.5952 32.0908C22.0907 31.6897 21.7122 31.175 21.346 30.671L20.4875 29.4784C20.166 29.0631 20.0033 28.6798 19.991 28.3639C19.987 28.2112 20.0155 28.0728 20.0806 27.9521C20.1497 27.8243 20.2555 27.7143 20.398 27.6327C20.4671 27.5901 20.5485 27.5581 20.634 27.5297C20.5811 26.8908 20.5648 26.1028 20.5973 25.4391C20.6177 25.2758 20.6502 25.1161 20.7031 24.9528C20.9229 24.2678 21.4722 23.7176 22.1558 23.3414C22.3958 23.2065 22.6603 23.0964 22.937 23.0113C24.585 22.4895 26.7741 22.7734 27.946 23.8809C28.422 24.3317 28.7231 24.928 28.7883 25.716L28.7272 27.6114ZM31.7098 34.1211L32.4666 34.1034L33.0973 34.0892C32.3649 32.1192 32.6091 30.309 34.375 28.7685C34.6761 29.6133 35.3475 30.3125 36.4909 30.8272C37.0361 31.1821 37.5651 31.6081 38.0778 32.1015C38.1673 31.7749 37.8215 31.3809 37.4023 30.9727C37.7889 31.1396 38.147 31.3738 38.3993 31.8246C38.6922 32.3464 38.6882 32.7865 38.5905 33.3544C38.5457 33.6171 38.4725 33.8656 38.3667 34.0892H39.4124C40.5151 32.0305 39.8153 28.9744 37.561 27.6788C36.8693 27.2813 36.3729 27.2955 35.5591 27.2955C34.6314 27.2955 34.1553 27.3203 33.3577 27.7817C32.1859 28.4597 31.4616 29.631 31.1605 31.2567C31.0995 32.0695 31.0588 33.4716 31.7098 34.1211ZM39.5304 20.6828H46.0002C46.0531 20.6828 46.0978 20.7112 46.0978 20.7467V22.4149C46.0978 22.4504 46.0531 22.4788 46.0002 22.4788H39.5304C39.4775 22.4788 39.4328 22.4504 39.4328 22.4149V20.7467C39.4328 20.7112 39.4775 20.6828 39.5304 20.6828ZM39.5304 17.0339H46.0002C46.0531 17.0339 46.0978 17.0623 46.0978 17.0978V18.7661C46.0978 18.8016 46.0531 18.83 46.0002 18.83H39.5304C39.4775 18.83 39.4328 18.8016 39.4328 18.7661V17.0978C39.4328 17.0623 39.4775 17.0339 39.5304 17.0339ZM3.95101 20.6828H10.4207C10.4736 20.6828 10.5184 20.7112 10.5184 20.7467V22.4149C10.5184 22.4504 10.4736 22.4788 10.4207 22.4788H3.95101C3.89811 22.4788 3.85335 22.4504 3.85335 22.4149V20.7467C3.85335 20.7112 3.89811 20.6828 3.95101 20.6828ZM3.95101 17.0339H10.4207C10.4736 17.0339 10.5184 17.0623 10.5184 17.0978V18.7661C10.5184 18.8016 10.4736 18.83 10.4207 18.83H3.95101C3.89811 18.83 3.85335 18.8016 3.85335 18.7661V17.0978C3.85335 17.0623 3.89811 17.0339 3.95101 17.0339ZM29.1626 17.4208H32.6172C32.6701 17.4208 32.7148 17.4599 32.7148 17.506V20.5195C32.7148 20.5657 32.6701 20.6047 32.6172 20.6047H29.1626C29.1097 20.6047 29.0649 20.5657 29.0649 20.5195V17.506C29.0649 17.4599 29.1097 17.4208 29.1626 17.4208ZM23.2259 17.4208H26.6805C26.7334 17.4208 26.7782 17.4599 26.7782 17.506V20.5195C26.7782 20.5657 26.7334 20.6047 26.6805 20.6047H23.2259C23.173 20.6047 23.1283 20.5657 23.1283 20.5195V17.506C23.1283 17.4599 23.173 17.4208 23.2259 17.4208ZM17.2892 17.4208H20.7438C20.7967 17.4208 20.8415 17.4599 20.8415 17.506V20.5195C20.8415 20.5657 20.7967 20.6047 20.7438 20.6047H17.2892C17.2363 20.6047 17.1916 20.5657 17.1916 20.5195V17.506C17.1916 17.4599 17.2363 17.4208 17.2892 17.4208ZM29.1626 11.5748H32.6172C32.6701 11.5748 32.7148 11.6139 32.7148 11.66V14.6735C32.7148 14.7197 32.6701 14.7587 32.6172 14.7587H29.1626C29.1097 14.7587 29.0649 14.7197 29.0649 14.6735V11.66C29.0649 11.6103 29.1097 11.5748 29.1626 11.5748ZM23.2259 11.5748H26.6805C26.7334 11.5748 26.7782 11.6139 26.7782 11.66V14.6735C26.7782 14.7197 26.7334 14.7587 26.6805 14.7587H23.2259C23.173 14.7587 23.1283 14.7197 23.1283 14.6735V11.66C23.1283 11.6103 23.173 11.5748 23.2259 11.5748ZM17.2892 11.5748H20.7438C20.7967 11.5748 20.8415 11.6139 20.8415 11.66V14.6735C20.8415 14.7197 20.7967 14.7587 20.7438 14.7587H17.2892C17.2363 14.7587 17.1916 14.7197 17.1916 14.6735V11.66C17.1916 11.6103 17.2363 11.5748 17.2892 11.5748Z" fill="#003A65"/>
</svg>
