<svg width="18" height="18" viewBox="0 0 18 18" fill="none" xmlns="http://www.w3.org/2000/svg">
    <path d="M13.778 13.5898H12.129C11.8817 13.5898 11.7168 13.7575 11.7168 14.0089C11.7168 14.2603 11.8817 14.428 12.129 14.428H13.778C14.0253 14.428 14.1902 14.2603 14.1902 14.0089C14.1902 13.7575 14.0253 13.5898 13.778 13.5898Z" fill="#003A65" stroke="#003A65" stroke-width="0.5" stroke-miterlimit="10"/>
    <path d="M12.5839 9.73566C14.6038 7.84985 14.7275 4.66492 12.8724 2.61147C11.0174 0.55803 7.88437 0.432309 5.8644 2.31812C3.84444 4.20394 3.72077 7.38887 5.57584 9.44231C5.65828 9.56803 5.78196 9.65185 5.8644 9.73566C2.97874 10.6995 1 13.4235 1 16.5246C1 16.776 1.16489 16.9437 1.41224 16.9437H17.0773C17.3246 16.9437 17.4895 16.776 17.4895 16.5246C17.4895 13.4235 15.5108 10.6995 12.5839 9.73566ZM5.12238 6.04785C5.12238 3.74296 6.97744 1.85715 9.24475 1.85715C11.5121 1.85715 13.3671 3.74296 13.3671 6.04785C13.3671 8.35273 11.5121 10.2385 9.24475 10.2385C6.97744 10.2385 5.12238 8.35273 5.12238 6.04785ZM1.82447 16.1055C2.03059 13.2978 4.05056 10.951 6.77133 10.4062C8.2966 11.3281 10.2341 11.3281 11.7594 10.4062C14.4802 10.9929 16.5001 13.2978 16.665 16.1474H1.82447V16.1055Z" fill="#003A65" stroke="#003A65" stroke-width="0.5" stroke-miterlimit="10"/>
</svg>
